<?xml version="1.0" encoding="UTF-8"?>
<svg width="1920px" height="537px" viewBox="0 0 1920 537" version="1.1" xmlns="http://www.w3.org/2000/svg" xmlns:xlink="http://www.w3.org/1999/xlink">
    <!-- Generator: Sketch 46.2 (44496) - http://www.bohemiancoding.com/sketch -->
    <title>lines</title>
    <desc>Created with Sketch.</desc>
    <defs></defs>
    <g id="Page-1" stroke="none" stroke-width="1" fill="none" fill-rule="evenodd" stroke-linecap="square" opacity="0.179999992">
        <g id="final-copy" stroke-width="0.5" stroke="#FFFFFF">
            <g id="lines">
                <path d="M2.02399902,75.25 L1942.3719,75.25" id="Line-4"></path>
                <path d="M2.02399902,327.25 L1942.3719,327.25" id="Line-4-Copy-3"></path>
                <path d="M2.02399902,159.25 L1942.3719,159.25" id="Line-4-Copy"></path>
                <path d="M2.02399902,411.25 L1942.3719,411.25" id="Line-4-Copy-4"></path>
                <path d="M0.674666341,243.25 L1941.02257,243.25" id="Line-4-Copy-2"></path>
                <path d="M0.674666341,495.25 L1941.02257,495.25" id="Line-4-Copy-5"></path>
                <path d="M71.25,1.51640927 L71.25,535.487586" id="Line-5"></path>
                <path d="M544.25,1.51640927 L544.25,535.487586" id="Line-5-Copy-6"></path>
                <path d="M1016.25,1.51640927 L1016.25,535.487586" id="Line-5-Copy-12"></path>
                <path d="M1568.25,0.516409266 L1568.25,534.487586" id="Line-5-Copy-18"></path>
                <path d="M305.25,1.51640927 L305.25,535.487586" id="Line-5-Copy-3"></path>
                <path d="M778.25,1.51640927 L778.25,535.487586" id="Line-5-Copy-7"></path>
                <path d="M1250.25,1.51640927 L1250.25,535.487586" id="Line-5-Copy-13"></path>
                <path d="M1802.25,0.516409266 L1802.25,534.487586" id="Line-5-Copy-19"></path>
                <path d="M149.25,1.51640927 L149.25,535.487586" id="Line-5-Copy"></path>
                <path d="M622.25,1.51640927 L622.25,535.487586" id="Line-5-Copy-8"></path>
                <path d="M1094.25,1.51640927 L1094.25,535.487586" id="Line-5-Copy-14"></path>
                <path d="M1646.25,0.516409266 L1646.25,534.487586" id="Line-5-Copy-20"></path>
                <path d="M383.25,1.51640927 L383.25,535.487586" id="Line-5-Copy-4"></path>
                <path d="M856.25,1.51640927 L856.25,535.487586" id="Line-5-Copy-9"></path>
                <path d="M1328.25,1.51640927 L1328.25,535.487586" id="Line-5-Copy-15"></path>
                <path d="M1880.25,0.516409266 L1880.25,534.487586" id="Line-5-Copy-21"></path>
                <path d="M227.25,1.51640927 L227.25,535.487586" id="Line-5-Copy-2"></path>
                <path d="M700.25,1.51640927 L700.25,535.487586" id="Line-5-Copy-10"></path>
                <path d="M1172.25,1.51640927 L1172.25,535.487586" id="Line-5-Copy-16"></path>
                <path d="M1724.25,0.516409266 L1724.25,534.487586" id="Line-5-Copy-22"></path>
                <path d="M461.25,1.51640927 L461.25,535.487586" id="Line-5-Copy-5"></path>
                <path d="M934.25,1.51640927 L934.25,535.487586" id="Line-5-Copy-11"></path>
                <path d="M1486.25,0.516409266 L1486.25,534.487586" id="Line-5-Copy-23"></path>
                <path d="M1406.25,1.5 L1406.25,536.500526" id="Line-5-Copy-17"></path>
            </g>
        </g>
    </g>
</svg>